<?xml version="1.0" encoding="utf-8"?>
<!-- Generator: Adobe Illustrator 15.1.0, SVG Export Plug-In . SVG Version: 6.00 Build 0)  -->
<!DOCTYPE svg PUBLIC "-//W3C//DTD SVG 1.1//EN" "http://www.w3.org/Graphics/SVG/1.1/DTD/svg11.dtd">
<svg version="1.1" id="Untitled-Page_x25_201" xmlns="http://www.w3.org/2000/svg" xmlns:xlink="http://www.w3.org/1999/xlink"
   x="0px" y="0px" width="179px" height="30px" viewBox="0 0 179 30" enable-background="new 0 0 179 30" xml:space="preserve">
<path fill="none" d="z"/>
<g>
  <path fill="#8BC53E" d="M38.258,28.445V2.082h4.341v16.042l7.481-7.468l2.466,2.438l-5.868,5.843l6.875,8.195L50.116,30
    l-7.517-8.938v7.383H38.258z"/>
  <path fill="#8BC53E" d="M62.409,28.877c-5.786,0-8.679-3.025-8.679-9.077c0-6.05,2.894-9.075,8.679-9.075
    c5.788,0,8.681,3.024,8.681,9.075C71.09,25.852,68.196,28.877,62.409,28.877z M66.749,19.8c0-3.745-1.446-5.618-4.34-5.618
    s-4.339,1.873-4.339,5.618c0,3.747,1.446,5.62,4.339,5.62S66.749,23.547,66.749,19.8z"/>
  <path fill="#8BC53E" d="M80.085,28.877c-5.788,0-8.681-3.025-8.681-9.077c0-6.05,2.894-9.075,8.681-9.075
    c5.786,0,8.679,3.024,8.679,9.075C88.764,25.852,85.871,28.877,80.085,28.877z M84.425,19.8c0-3.745-1.448-5.618-4.34-5.618
    c-2.894,0-4.341,1.873-4.341,5.618c0,3.747,1.448,5.62,4.341,5.62C82.977,25.42,84.425,23.547,84.425,19.8z"/>
  <path fill="#8BC53E" d="M105.135,14.269c0.289-2.363,2.314-3.543,6.076-3.543s5.642,2.449,5.642,7.347v10.373h-4.34V18.072
    c0-2.594-1.157-3.891-3.472-3.891c-2.316,0-3.473,1.297-3.473,3.891v10.373h-4.34V18.072c0-2.594-1.156-3.891-3.472-3.891
    c-2.313,0-3.473,1.297-3.473,3.891v10.373h-4.339V11.157h4.339v2.593c0-2.017,1.882-3.024,5.644-3.024
    C102.59,10.782,104.324,11.964,105.135,14.269z"/>
  <path fill="#36291B" d="M128.883,10.725c3.762,0,5.643,2.88,5.643,8.642c0,5.765-1.969,8.887-5.902,9.377
    c-3.936,0.49-7.176-0.184-9.721-2.028V2.082h4.34V13.75C123.242,11.733,125.121,10.725,128.883,10.725z M126.974,25.201
    c2.142-0.145,3.21-2.018,3.21-5.617c0-3.602-1.156-5.402-3.47-5.402c-2.315,0-3.472,1.297-3.472,3.891v5.618
    C123.588,24.844,124.832,25.345,126.974,25.201z"/>
  <path fill="#36291B" d="M144.389,28.877c-5.787,0-8.68-3.025-8.68-9.077c0-6.05,2.72-9.075,8.158-9.075
    c5.439,0,8.158,3.024,8.158,9.075v1.729h-11.89c0.693,2.709,2.111,4.006,4.253,3.891c1.967,0.058,3.616-0.807,4.947-2.594
    l2.604,2.594C150.088,27.725,147.571,28.877,144.389,28.877z M147.687,18.072c0-2.594-1.143-3.891-3.429-3.891
    c-2.285,0-3.66,1.297-4.122,3.891H147.687z"/>
  <path fill="#36291B" d="M160.674,10.725c4.63,0,6.945,3.024,6.945,9.075v8.646h-4.34v-1.867c-0.404,1.302-2.025,2.068-4.861,2.299
    c-4.051,0-6.076-1.93-6.076-5.79c0-3.863,2.726-5.909,8.176-6.14c1.09,0,2.096,0.115,3.021,0.347
    c-0.348-2.19-1.302-3.228-2.865-3.112c-1.967-0.057-3.586,0.663-4.86,2.161l-2.431-3.025
    C155.121,11.589,157.551,10.725,160.674,10.725z M156.335,22.74c0,1.786,1.198,2.691,3.599,2.72
    c2.402,0.029,3.589-1.567,3.553-4.795l-2.273-0.26C157.961,20.174,156.335,20.953,156.335,22.74z"/>
</g>
<g>
  <path fill="#36291B" d="M167.746,7.148v0.601h1.726v4.438h0.7V7.749h1.726V7.148H167.746L167.746,7.148z"/>
  <path fill="#36291B" d="M172.909,12.188h0.67V9.214c0-0.117-0.015-0.293-0.015-0.557V8.086V7.939l1.473,4.248h0.685l1.458-4.248
    c0,0.264-0.014,0.527-0.014,0.762v0.513v2.974h0.654V7.148h-0.982l-1.459,4.263l-1.473-4.263h-0.997V12.188L172.909,12.188z"/>
</g>
<path fill="none" d="z"/>
<g>
  <path fill="#8BC53E" d="M21.609,16.353c0,0,0.966-0.767,1.117-0.835c-0.139-0.083-0.992-0.977-0.992-0.977s0.719-0.989,0.853-1.096
    c-0.166-0.047-1.221-0.67-1.221-0.67s0.416-1.153,0.52-1.296c-0.172,0.012-1.361-0.318-1.361-0.318s0.097-1.223,0.167-1.376
    c-0.167,0.048-1.398,0.059-1.398,0.059s-0.246-1.202-0.235-1.376C18.923,8.559,17.746,8.9,17.746,8.9s-0.559-1.093-0.592-1.259
    c-0.115,0.131-1.162,0.765-1.162,0.765s-0.828-0.894-0.907-1.046c-0.071,0.152-0.912,1.046-0.912,1.046s-1.043-0.634-1.147-0.765
    C12.992,7.808,12.428,8.9,12.428,8.9s-1.185-0.341-1.322-0.435c0.013,0.174-0.218,1.376-0.218,1.376S9.654,9.832,9.489,9.784
    C9.55,9.938,9.641,11.16,9.641,11.16s-1.185,0.331-1.348,0.318c0.091,0.143,0.511,1.296,0.511,1.296s-1.047,0.624-1.211,0.67
    c0.13,0.106,0.851,1.096,0.851,1.096s-0.851,0.894-1.001,0.977c0.162,0.068,1.118,0.835,1.118,0.835s-0.567,1.081-0.688,1.203
    c0.167,0.021,1.29,0.503,1.29,0.503S8.909,19.262,8.827,19.4c0.172-0.02,1.386,0.143,1.386,0.143s0.082,1.226,0.046,1.392
    c0.151-0.075,1.37-0.249,1.37-0.249s0.396,1.152,0.41,1.318c0.128-0.105,1.254-0.601,1.254-0.601s0.696,1.001,0.757,1.165
    c0.095-0.139,1.036-0.917,1.036-0.917s0.952,0.778,1.045,0.917c0.06-0.164,0.755-1.165,0.755-1.165s1.13,0.495,1.259,0.601
    c0-0.166,0.406-1.318,0.406-1.318s1.219,0.174,1.373,0.249c-0.035-0.166,0.033-1.392,0.033-1.392s1.221-0.162,1.384-0.143
    c-0.082-0.139-0.335-1.342-0.335-1.342s1.125-0.481,1.302-0.503C22.187,17.434,21.609,16.353,21.609,16.353z M15.084,20.921
    c-3.278,0-5.934-2.647-5.934-5.922c0-3.273,2.655-5.923,5.934-5.923c3.28,0,5.943,2.65,5.943,5.923
    C21.028,18.273,18.364,20.921,15.084,20.921z"/>
  <path fill="#8BC53E" d="M18.703,13.706c0,0,0.231-0.674,0.287-0.754c-0.091,0.013-0.776-0.177-0.776-0.177s0.056-0.706,0.093-0.802
    c-0.093,0.036-0.807,0.036-0.807,0.036s-0.136-0.694-0.136-0.791c-0.082,0.049-0.76,0.248-0.76,0.248s-0.325-0.635-0.331-0.727
    c-0.074,0.069-0.679,0.445-0.679,0.445s-0.477-0.519-0.523-0.613c-0.046,0.094-0.523,0.613-0.523,0.613s-0.602-0.375-0.666-0.445
    c-0.019,0.091-0.343,0.727-0.343,0.727s-0.678-0.199-0.758-0.248c0,0.096-0.14,0.791-0.14,0.791s-0.709,0-0.801-0.036
    c0.034,0.096,0.091,0.802,0.091,0.802s-0.688,0.19-0.777,0.177c0.056,0.08,0.299,0.754,0.299,0.754s-0.618,0.351-0.71,0.388
    c0.084,0.057,0.491,0.623,0.491,0.623s-0.491,0.518-0.572,0.565c0.093,0.035,0.643,0.485,0.643,0.485s-0.329,0.62-0.397,0.693
    c0.093,0.012,0.755,0.294,0.755,0.294s-0.149,0.68-0.196,0.776c0.093-0.021,0.789,0.072,0.789,0.072s0.045,0.705,0.028,0.801
    c0.091-0.038,0.788-0.144,0.788-0.144s0.231,0.671,0.246,0.766c0.068-0.059,0.721-0.343,0.721-0.343s0.405,0.579,0.43,0.673
    c0.059-0.084,0.603-0.531,0.603-0.531s0.547,0.447,0.607,0.531c0.023-0.094,0.431-0.673,0.431-0.673s0.65,0.284,0.718,0.343
    c0.012-0.095,0.246-0.766,0.246-0.766s0.698,0.105,0.789,0.144c-0.021-0.096,0.024-0.801,0.024-0.801s0.701-0.094,0.793-0.072
    c-0.048-0.097-0.186-0.776-0.186-0.776s0.652-0.282,0.743-0.294c-0.068-0.073-0.397-0.693-0.397-0.693s0.548-0.45,0.639-0.485
    c-0.084-0.047-0.567-0.565-0.567-0.565s0.405-0.565,0.483-0.623C19.305,14.057,18.703,13.706,18.703,13.706z M15.071,18.403
    c-1.896,0-3.42-1.532-3.42-3.417c0-1.895,1.524-3.427,3.42-3.427c1.894,0,3.432,1.533,3.432,3.427
    C18.502,16.871,16.964,18.403,15.071,18.403z"/>
  <path fill="#8BC53E" d="M15.084,6.146c-4.883,0-8.85,3.968-8.85,8.84c0,4.886,3.967,8.841,8.85,8.841
    c4.893,0,8.849-3.955,8.849-8.841C23.934,10.114,19.977,6.146,15.084,6.146z M15.084,23.322c-4.606,0-8.329-3.732-8.329-8.335
    c0-4.593,3.722-8.323,8.329-8.323c4.605,0,8.337,3.73,8.337,8.323C23.422,19.59,19.689,23.322,15.084,23.322z"/>
  <path fill="#8BC53E" d="M15.084,0C6.756,0,0,6.712,0,14.987c0,8.29,6.756,15.002,15.084,15.002c8.337,0,15.094-6.713,15.094-15.002
    C30.178,6.712,23.422,0,15.084,0z M15.084,27.605c-7,0-12.687-5.647-12.687-12.619c0-6.956,5.688-12.607,12.687-12.607
    c7.01,0,12.697,5.651,12.697,12.607C27.781,21.958,22.094,27.605,15.084,27.605z"/>
  <path fill="#8BC53E" d="M15.084,3.462c-6.408,0-11.606,5.154-11.606,11.524c0,6.369,5.198,11.54,11.606,11.54
    c6.419,0,11.616-5.171,11.616-11.54C26.7,8.616,21.504,3.462,15.084,3.462z M15.084,25.167c-5.652,0-10.235-4.553-10.235-10.18
    c0-5.614,4.583-10.172,10.235-10.172c5.665,0,10.245,4.558,10.245,10.172C25.329,20.614,20.75,25.167,15.084,25.167z"/>
</g>
</svg>
